{
  "accessors": [
    {
      "bufferView": 2,
      "componentType": 5126,
      "count": 5675,
      "max": [
        1.0,
        0.5139769911766052,
        0.5769029855728149
      ],
      "min": [
        -1.0,
        -0.5139769911766052,
        -0.5702340006828308
      ],
      "type": "VEC3"
    },
    {
      "bufferView": 2,
      "byteOffset": 68100,
      "componentType": 5126,
      "count": 5675,
      "max": [
        1.0,
        1.0,
        1.0
      ],
      "min": [
        -1.0,
        -1.0,
        -1.0
      ],
      "type": "VEC3"
    },
    {
      "bufferView": 3,
      "componentType": 5126,
      "count": 5675,
      "max": [
        1.0,
        1.0,
        1.0,
        1.0
      ],
      "min": [
        -1.0,
        -1.0,
        -1.0,
        -1.0
      ],
      "type": "VEC4"
    },
    {
      "bufferView": 1,
      "componentType": 5126,
      "count": 5675,
      "max": [
        0.9950590133666992,
        0.9955930113792419
      ],
      "min": [
        0.00761799979954958,
        0.006688000168651342
      ],
      "type": "VEC2"
    },
    {
      "bufferView": 0,
      "componentType": 5125,
      "count": 21672,
      "type": "SCALAR"
    },
    {
      "bufferView": 2,
      "byteOffset": 136200,
      "componentType": 5126,
      "count": 337,
      "max": [
        -0.3332259953022003,
        -0.0324488990008831,
        -0.4638490080833435
      ],
      "min": [
        -0.5109959840774536,
        -0.2851339876651764,
        -0.5769029855728149
      ],
      "type": "VEC3"
    },
    {
      "bufferView": 2,
      "byteOffset": 140244,
      "componentType": 5126,
      "count": 337,
      "max": [
        0.9924139976501465,
        0.9539694786071777,
        0.9670352339744568
      ],
      "min": [
        -0.9925041198730469,
        -0.9901930093765259,
        -0.953008234500885
      ],
      "type": "VEC3"
    },
    {
      "bufferView": 3,
      "byteOffset": 90800,
      "componentType": 5126,
      "count": 337,
      "max": [
        0.9927610158920288,
        0.9661700129508972,
        0.997527003288269,
        1.0
      ],
      "min": [
        -0.9984089732170105,
        -0.9543520212173462,
        -0.9529479742050171,
        1.0
      ],
      "type": "VEC4"
    },
    {
      "bufferView": 1,
      "byteOffset": 45400,
      "componentType": 5126,
      "count": 337,
      "max": [
        0.9926440119743347,
        0.8031870126724243
      ],
      "min": [
        0.8485609889030457,
        0.6549869775772095
      ],
      "type": "VEC2"
    },
    {
      "bufferView": 0,
      "byteOffset": 86688,
      "componentType": 5125,
      "count": 1194,
      "type": "SCALAR"
    }
  ],
  "asset": {
    "extras": {
      "author": "AIV (https://sketchfab.com/aiv)",
      "license": "CC-BY-4.0 (http://creativecommons.org/licenses/by/4.0/)",
      "source": "https://sketchfab.com/3d-models/medieval-chest-037b03a3e0274279be4b93b7c7cedf01",
      "title": "Medieval Chest"
    },
    "generator": "Sketchfab-12.67.0",
    "version": "2.0"
  },
  "bufferViews": [
    {
      "buffer": 0,
      "byteLength": 91464,
      "name": "floatBufferViews",
      "target": 34963
    },
    {
      "buffer": 0,
      "byteLength": 48096,
      "byteOffset": 91464,
      "byteStride": 8,
      "name": "floatBufferViews",
      "target": 34962
    },
    {
      "buffer": 0,
      "byteLength": 144288,
      "byteOffset": 139560,
      "byteStride": 12,
      "name": "floatBufferViews",
      "target": 34962
    },
    {
      "buffer": 0,
      "byteLength": 96192,
      "byteOffset": 283848,
      "byteStride": 16,
      "name": "floatBufferViews",
      "target": 34962
    }
  ],
  "buffers": [
    {
      "byteLength": 380040,
      "uri": "chest.bin"
    }
  ],
  "images": [
    {
      "uri": "textures/DefaultMaterial_baseColor.jpeg"
    },
    {
      "uri": "textures/DefaultMaterial_metallicRoughness.png"
    },
    {
      "uri": "textures/DefaultMaterial_normal.png"
    }
  ],
  "materials": [
    {
      "doubleSided": true,
      "name": "DefaultMaterial",
      "normalTexture": {
        "index": 2
      },
      "occlusionTexture": {
        "index": 1
      },
      "pbrMetallicRoughness": {
        "baseColorTexture": {
          "index": 0
        },
        "metallicRoughnessTexture": {
          "index": 1
        }
      }
    }
  ],
  "meshes": [
    {
      "name": "defaultMaterial",
      "primitives": [
        {
          "attributes": {
            "NORMAL": 1,
            "POSITION": 0,
            "TANGENT": 2,
            "TEXCOORD_0": 3
          },
          "indices": 4,
          "material": 0,
          "mode": 4
        }
      ]
    },
    {
      "name": "defaultMaterial",
      "primitives": [
        {
          "attributes": {
            "NORMAL": 6,
            "POSITION": 5,
            "TANGENT": 7,
            "TEXCOORD_0": 8
          },
          "indices": 9,
          "material": 0,
          "mode": 4
        }
      ]
    }
  ],
  "nodes": [
    {
      "children": [
        1
      ],
      "matrix": [
        1.0,
        0.0,
        0.0,
        0.0,
        0.0,
        2.220446049250313e-16,
        -1.0,
        0.0,
        0.0,
        1.0,
        2.220446049250313e-16,
        0.0,
        0.0,
        0.0,
        0.0,
        1.0
      ],
      "name": "Sketchfab_model"
    },
    {
      "children": [
        2,
        4
      ],
      "matrix": [
        1.0,
        0.0,
        0.0,
        0.0,
        0.0,
        -4.371139006309477e-08,
        0.999999999999999,
        0.0,
        0.0,
        -0.999999999999999,
        -4.371139006309477e-08,
        0.0,
        0.0,
        0.0,
        0.0,
        1.0
      ],
      "name": "Collada visual scene group"
    },
    {
      "children": [
        3
      ],
      "name": "g"
    },
    {
      "mesh": 0,
      "name": "defaultMaterial"
    },
    {
      "children": [
        5
      ],
      "name": "g"
    },
    {
      "mesh": 1,
      "name": "defaultMaterial"
    }
  ],
  "samplers": [
    {
      "magFilter": 9729,
      "minFilter": 9987,
      "wrapS": 10497,
      "wrapT": 10497
    }
  ],
  "scene": 0,
  "scenes": [
    {
      "name": "Sketchfab_Scene",
      "nodes": [
        0
      ]
    }
  ],
  "textures": [
    {
      "sampler": 0,
      "source": 0
    },
    {
      "sampler": 0,
      "source": 1
    },
    {
      "sampler": 0,
      "source": 2
    }
  ]
}
