{
  "accessors": [
    {
      "bufferView": 2,
      "componentType": 5126,
      "count": 3922,
      "max": [
        23.58103370666504,
        78.18180084228516,
        11.887289047241211
      ],
      "min": [
        -23.580835342407227,
        0.022191880270838737,
        -10.809908866882324
      ],
      "type": "VEC3"
    },
    {
      "bufferView": 2,
      "byteOffset": 47064,
      "componentType": 5126,
      "count": 3922,
      "max": [
        0.999921977519989,
        1.0000003576278687,
        0.9995619058609009
      ],
      "min": [
        -0.999921977519989,
        -1.0000004768371582,
        -0.9999644756317139
      ],
      "type": "VEC3"
    },
    {
      "bufferView": 1,
      "componentType": 5126,
      "count": 3922,
      "max": [
        0.9962300062179565,
        -0.005795000120997429
      ],
      "min": [
        0.0029670000076293945,
        -0.9977570176124573
      ],
      "type": "VEC2"
    },
    {
      "bufferView": 0,
      "componentType": 5125,
      "count": 12480,
      "type": "SCALAR"
    },
    {
      "bufferView": 2,
      "byteOffset": 94128,
      "componentType": 5126,
      "count": 2429,
      "max": [
        3.7672901153564453,
        83.73909759521484,
        5.587181568145752
      ],
      "min": [
        -3.7672901153564453,
        70.43740844726563,
        -3.3949129581451416
      ],
      "type": "VEC3"
    },
    {
      "bufferView": 2,
      "byteOffset": 123276,
      "componentType": 5126,
      "count": 2429,
      "max": [
        0.9998691082000732,
        0.9999245405197144,
        0.9999738931655884
      ],
      "min": [
        -0.9998691082000732,
        -0.998841404914856,
        -0.9999808669090271
      ],
      "type": "VEC3"
    },
    {
      "bufferView": 1,
      "byteOffset": 31376,
      "componentType": 5126,
      "count": 2429,
      "max": [
        1.0,
        0.0
      ],
      "min": [
        0.0,
        -0.9953399896621704
      ],
      "type": "VEC2"
    },
    {
      "bufferView": 0,
      "byteOffset": 49920,
      "componentType": 5125,
      "count": 12714,
      "type": "SCALAR"
    },
    {
      "bufferView": 2,
      "byteOffset": 152424,
      "componentType": 5126,
      "count": 32,
      "max": [
        -0.9393410086631775,
        79.00860595703125,
        4.04161262512207
      ],
      "min": [
        -2.068389892578125,
        78.18180847167969,
        3.6090829372406006
      ],
      "type": "VEC3"
    },
    {
      "bufferView": 2,
      "byteOffset": 152808,
      "componentType": 5126,
      "count": 32,
      "max": [
        0.5545741319656372,
        0.4084075391292572,
        0.9958466291427612
      ],
      "min": [
        -0.7728731632232666,
        -0.4854278862476349,
        0.6192848086357117
      ],
      "type": "VEC3"
    },
    {
      "bufferView": 1,
      "byteOffset": 50808,
      "componentType": 5126,
      "count": 32,
      "max": [
        -0.012349000200629234,
        -0.10864000022411346
      ],
      "min": [
        -0.9785500168800354,
        -0.816178023815155
      ],
      "type": "VEC2"
    },
    {
      "bufferView": 0,
      "byteOffset": 100776,
      "componentType": 5125,
      "count": 132,
      "type": "SCALAR"
    },
    {
      "bufferView": 2,
      "byteOffset": 153192,
      "componentType": 5126,
      "count": 100,
      "max": [
        2.993149995803833,
        44.89100646972656,
        10.46490478515625
      ],
      "min": [
        -3.420069932937622,
        38.30551528930664,
        5.985178470611572
      ],
      "type": "VEC3"
    },
    {
      "bufferView": 2,
      "byteOffset": 154392,
      "componentType": 5126,
      "count": 100,
      "max": [
        0.18012306094169617,
        0.5862663984298706,
        0.9995766282081604
      ],
      "min": [
        -0.24372093379497528,
        -0.2418578863143921,
        0.8073691725730896
      ],
      "type": "VEC3"
    },
    {
      "bufferView": 1,
      "byteOffset": 51064,
      "componentType": 5126,
      "count": 100,
      "max": [
        0.9611309766769409,
        -0.008089999668300152
      ],
      "min": [
        0.003387999953702092,
        -1.0014699697494507
      ],
      "type": "VEC2"
    },
    {
      "bufferView": 0,
      "byteOffset": 101304,
      "componentType": 5125,
      "count": 429,
      "type": "SCALAR"
    },
    {
      "bufferView": 2,
      "byteOffset": 155592,
      "componentType": 5126,
      "count": 100,
      "max": [
        2.993149995803833,
        44.89100646972656,
        10.46490478515625
      ],
      "min": [
        -3.420069932937622,
        38.30551528930664,
        5.985178470611572
      ],
      "type": "VEC3"
    },
    {
      "bufferView": 2,
      "byteOffset": 156792,
      "componentType": 5126,
      "count": 100,
      "max": [
        0.18012306094169617,
        0.5862663984298706,
        0.9995766282081604
      ],
      "min": [
        -0.24372093379497528,
        -0.2418578863143921,
        0.8073691725730896
      ],
      "type": "VEC3"
    },
    {
      "bufferView": 1,
      "byteOffset": 51864,
      "componentType": 5126,
      "count": 100,
      "max": [
        0.9611309766769409,
        -0.008089999668300152
      ],
      "min": [
        0.003387999953702092,
        -1.0014699697494507
      ],
      "type": "VEC2"
    },
    {
      "bufferView": 0,
      "byteOffset": 103020,
      "componentType": 5125,
      "count": 429,
      "type": "SCALAR"
    },
    {
      "bufferView": 2,
      "byteOffset": 157992,
      "componentType": 5126,
      "count": 32,
      "max": [
        -0.9393410086631775,
        79.00860595703125,
        4.04161262512207
      ],
      "min": [
        -2.068389892578125,
        78.18180847167969,
        3.6090829372406006
      ],
      "type": "VEC3"
    },
    {
      "bufferView": 2,
      "byteOffset": 158376,
      "componentType": 5126,
      "count": 32,
      "max": [
        0.5545741319656372,
        0.4084075391292572,
        0.9958466291427612
      ],
      "min": [
        -0.7728731632232666,
        -0.4854278862476349,
        0.6192848086357117
      ],
      "type": "VEC3"
    },
    {
      "bufferView": 1,
      "byteOffset": 52664,
      "componentType": 5126,
      "count": 32,
      "max": [
        -0.012349000200629234,
        -0.10864000022411346
      ],
      "min": [
        -0.9785500168800354,
        -0.816178023815155
      ],
      "type": "VEC2"
    },
    {
      "bufferView": 0,
      "byteOffset": 104736,
      "componentType": 5125,
      "count": 132,
      "type": "SCALAR"
    },
    {
      "bufferView": 2,
      "byteOffset": 158760,
      "componentType": 5126,
      "count": 2429,
      "max": [
        3.7672901153564453,
        83.73909759521484,
        5.587181568145752
      ],
      "min": [
        -3.7672901153564453,
        70.43740844726563,
        -3.3949129581451416
      ],
      "type": "VEC3"
    },
    {
      "bufferView": 2,
      "byteOffset": 187908,
      "componentType": 5126,
      "count": 2429,
      "max": [
        0.9998691082000732,
        0.9999245405197144,
        0.9999738931655884
      ],
      "min": [
        -0.9998691082000732,
        -0.998841404914856,
        -0.9999808669090271
      ],
      "type": "VEC3"
    },
    {
      "bufferView": 1,
      "byteOffset": 52920,
      "componentType": 5126,
      "count": 2429,
      "max": [
        1.0,
        0.0
      ],
      "min": [
        0.0,
        -0.9953399896621704
      ],
      "type": "VEC2"
    },
    {
      "bufferView": 0,
      "byteOffset": 105264,
      "componentType": 5125,
      "count": 12714,
      "type": "SCALAR"
    },
    {
      "bufferView": 2,
      "byteOffset": 217056,
      "componentType": 5126,
      "count": 3922,
      "max": [
        23.58103370666504,
        78.18180084228516,
        11.887289047241211
      ],
      "min": [
        -23.580835342407227,
        0.022191880270838737,
        -10.809908866882324
      ],
      "type": "VEC3"
    },
    {
      "bufferView": 2,
      "byteOffset": 264120,
      "componentType": 5126,
      "count": 3922,
      "max": [
        0.999921977519989,
        1.0000003576278687,
        0.9995619058609009
      ],
      "min": [
        -0.999921977519989,
        -1.0000004768371582,
        -0.9999644756317139
      ],
      "type": "VEC3"
    },
    {
      "bufferView": 1,
      "byteOffset": 72352,
      "componentType": 5126,
      "count": 3922,
      "max": [
        0.9962300062179565,
        -0.005795000120997429
      ],
      "min": [
        0.0029670000076293945,
        -0.9977570176124573
      ],
      "type": "VEC2"
    },
    {
      "bufferView": 0,
      "byteOffset": 156120,
      "componentType": 5125,
      "count": 12480,
      "type": "SCALAR"
    }
  ],
  "asset": {
    "extras": {
      "author": "Z-Machine (https://sketchfab.com/Z-Machine)",
      "license": "CC-BY-4.0 (http://creativecommons.org/licenses/by/4.0/)",
      "source": "https://sketchfab.com/3d-models/team-fortress-2-demoman-ece077bcf775411b9131801af201cf65",
      "title": "Team Fortress 2 - Demoman"
    },
    "generator": "Sketchfab-15.32.0",
    "version": "2.0"
  },
  "bufferViews": [
    {
      "buffer": 0,
      "byteLength": 206040,
      "name": "floatBufferViews",
      "target": 34963
    },
    {
      "buffer": 0,
      "byteLength": 103728,
      "byteOffset": 206040,
      "byteStride": 8,
      "name": "floatBufferViews",
      "target": 34962
    },
    {
      "buffer": 0,
      "byteLength": 311184,
      "byteOffset": 309768,
      "byteStride": 12,
      "name": "floatBufferViews",
      "target": 34962
    }
  ],
  "buffers": [
    {
      "byteLength": 620952,
      "uri": "demoman.bin"
    }
  ],
  "images": [
    {
      "uri": "textures/models_player_demo_demoman_red_baseColor.png"
    },
    {
      "uri": "textures/models_player_demo_demoman_head_red_baseColor.png"
    },
    {
      "uri": "textures/models_player_demo_eyeball_r_baseColor.png"
    },
    {
      "uri": "textures/models_effects_smiley_baseColor.png"
    }
  ],
  "materials": [
    {
      "doubleSided": true,
      "name": "models_player_demo_demoman_red",
      "pbrMetallicRoughness": {
        "baseColorTexture": {
          "index": 0
        },
        "metallicFactor": 0.0
      }
    },
    {
      "doubleSided": true,
      "name": "models_player_demo_demoman_head_red",
      "pbrMetallicRoughness": {
        "baseColorTexture": {
          "index": 1
        },
        "metallicFactor": 0.0
      }
    },
    {
      "doubleSided": true,
      "name": "models_player_demo_eyeball_r",
      "pbrMetallicRoughness": {
        "baseColorTexture": {
          "index": 2
        },
        "metallicFactor": 0.0
      }
    },
    {
      "doubleSided": true,
      "name": "models_effects_smiley",
      "pbrMetallicRoughness": {
        "baseColorTexture": {
          "index": 3
        },
        "metallicFactor": 0.0
      }
    }
  ],
  "meshes": [
    {
      "name": "Object_0",
      "primitives": [
        {
          "attributes": {
            "NORMAL": 1,
            "POSITION": 0,
            "TEXCOORD_0": 2
          },
          "indices": 3,
          "material": 0,
          "mode": 4
        }
      ]
    },
    {
      "name": "Object_1",
      "primitives": [
        {
          "attributes": {
            "NORMAL": 5,
            "POSITION": 4,
            "TEXCOORD_0": 6
          },
          "indices": 7,
          "material": 1,
          "mode": 4
        }
      ]
    },
    {
      "name": "Object_2",
      "primitives": [
        {
          "attributes": {
            "NORMAL": 9,
            "POSITION": 8,
            "TEXCOORD_0": 10
          },
          "indices": 11,
          "material": 2,
          "mode": 4
        }
      ]
    },
    {
      "name": "Object_3",
      "primitives": [
        {
          "attributes": {
            "NORMAL": 13,
            "POSITION": 12,
            "TEXCOORD_0": 14
          },
          "indices": 15,
          "material": 3,
          "mode": 4
        }
      ]
    },
    {
      "name": "Object_4",
      "primitives": [
        {
          "attributes": {
            "NORMAL": 17,
            "POSITION": 16,
            "TEXCOORD_0": 18
          },
          "indices": 19,
          "material": 3,
          "mode": 4
        }
      ]
    },
    {
      "name": "Object_5",
      "primitives": [
        {
          "attributes": {
            "NORMAL": 21,
            "POSITION": 20,
            "TEXCOORD_0": 22
          },
          "indices": 23,
          "material": 2,
          "mode": 4
        }
      ]
    },
    {
      "name": "Object_6",
      "primitives": [
        {
          "attributes": {
            "NORMAL": 25,
            "POSITION": 24,
            "TEXCOORD_0": 26
          },
          "indices": 27,
          "material": 1,
          "mode": 4
        }
      ]
    },
    {
      "name": "Object_7",
      "primitives": [
        {
          "attributes": {
            "NORMAL": 29,
            "POSITION": 28,
            "TEXCOORD_0": 30
          },
          "indices": 31,
          "material": 0,
          "mode": 4
        }
      ]
    }
  ],
  "nodes": [
    {
      "children": [
        1
      ],
      "matrix": [
        1.0,
        0.0,
        0.0,
        0.0,
        0.0,
        2.220446049250313e-16,
        -1.0,
        0.0,
        0.0,
        1.0,
        2.220446049250313e-16,
        0.0,
        0.0,
        0.0,
        0.0,
        1.0
      ],
      "name": "Sketchfab_model"
    },
    {
      "children": [
        2
      ],
      "matrix": [
        1.0,
        0.0,
        0.0,
        0.0,
        0.0,
        -4.371139006309477e-08,
        0.999999999999999,
        0.0,
        0.0,
        -0.999999999999999,
        -4.371139006309477e-08,
        0.0,
        0.0,
        0.0,
        0.0,
        1.0
      ],
      "name": "Collada visual scene group"
    },
    {
      "children": [
        3,
        4,
        5,
        6,
        7,
        8,
        9,
        10
      ],
      "name": "Object_2"
    },
    {
      "mesh": 0,
      "name": "Object_3"
    },
    {
      "mesh": 1,
      "name": "Object_4"
    },
    {
      "mesh": 2,
      "name": "Object_5"
    },
    {
      "mesh": 3,
      "name": "Object_6"
    },
    {
      "mesh": 4,
      "name": "Object_7"
    },
    {
      "mesh": 5,
      "name": "Object_8"
    },
    {
      "mesh": 6,
      "name": "Object_9"
    },
    {
      "mesh": 7,
      "name": "Object_10"
    }
  ],
  "samplers": [
    {
      "magFilter": 9729,
      "minFilter": 9987,
      "wrapS": 10497,
      "wrapT": 10497
    }
  ],
  "scene": 0,
  "scenes": [
    {
      "name": "Sketchfab_Scene",
      "nodes": [
        0
      ]
    }
  ],
  "textures": [
    {
      "sampler": 0,
      "source": 0
    },
    {
      "sampler": 0,
      "source": 1
    },
    {
      "sampler": 0,
      "source": 2
    },
    {
      "sampler": 0,
      "source": 3
    }
  ]
}
