{
  "accessors": [
    {
      "bufferView": 2,
      "componentType": 5126,
      "count": 3141,
      "max": [
        0.6612200140953064,
        0.5022100210189819,
        2.0771799087524414
      ],
      "min": [
        -0.6612200140953064,
        -0.5123599767684937,
        2.9999999242136255e-05
      ],
      "type": "VEC3"
    },
    {
      "bufferView": 2,
      "byteOffset": 37692,
      "componentType": 5126,
      "count": 3141,
      "max": [
        0.9999998807907104,
        0.9998927712440491,
        1.0
      ],
      "min": [
        -0.9999998807907104,
        -1.0,
        -1.0
      ],
      "type": "VEC3"
    },
    {
      "bufferView": 1,
      "componentType": 5126,
      "count": 3141,
      "max": [
        0.9913100004196167,
        0.9965500235557556
      ],
      "min": [
        0.00443999981507659,
        -9.999999747378752e-05
      ],
      "type": "VEC2"
    },
    {
      "bufferView": 0,
      "componentType": 5125,
      "count": 4944,
      "type": "SCALAR"
    },
    {
      "bufferView": 3,
      "componentType": 5126,
      "count": 39,
      "max": [
        1.0,
        0.810259997844696,
        0.771619975566864,
        0.0,
        0.9872699975967407,
        1.0,
        0.999970018863678,
        0.0,
        0.010599999688565731,
        1.0,
        1.0,
        0.0,
        4.31866979598999,
        6.95389986038208,
        0.47005000710487366,
        1.0
      ],
      "min": [
        -1.0,
        -0.810259997844696,
        -0.771619975566864,
        0.0,
        -0.987280011177063,
        -1.0,
        -1.0,
        0.0,
        -0.005410000216215849,
        -0.9997699856758118,
        0.0,
        0.0,
        -4.2180399894714355,
        -13.343740463256836,
        -7.233630180358887,
        1.0
      ],
      "type": "MAT4"
    }
  ],
  "asset": {
    "extras": {
      "author": "Sebastian Lague (https://sketchfab.com/SebastianL)",
      "license": "CC-BY-4.0 (http://creativecommons.org/licenses/by/4.0/)",
      "source": "https://sketchfab.com/3d-models/low-poly-character-rigged-b2ca55ab706c4b1ba1c6475d8b3c5bfd",
      "title": "Low poly character (rigged)"
    },
    "generator": "Sketchfab-12.62.1",
    "version": "2.0"
  },
  "bufferViews": [
    {
      "buffer": 0,
      "byteLength": 19776,
      "name": "floatBufferViews",
      "target": 34963
    },
    {
      "buffer": 0,
      "byteLength": 25128,
      "byteOffset": 19776,
      "byteStride": 8,
      "name": "floatBufferViews",
      "target": 34962
    },
    {
      "buffer": 0,
      "byteLength": 75384,
      "byteOffset": 44904,
      "byteStride": 12,
      "name": "floatBufferViews",
      "target": 34962
    },
    {
      "buffer": 0,
      "byteLength": 2496,
      "byteOffset": 120288,
      "name": "floatBufferViews"
    }
  ],
  "buffers": [
    {
      "byteLength": 122784,
      "uri": "men.bin"
    }
  ],
  "extensionsUsed": [
    "KHR_materials_unlit"
  ],
  "images": [
    {
      "uri": "textures/Character_baseColor.jpeg"
    }
  ],
  "materials": [
    {
      "doubleSided": true,
      "extensions": {
        "KHR_materials_unlit": {}
      },
      "name": "Character",
      "pbrMetallicRoughness": {
        "baseColorTexture": {
          "index": 0
        },
        "metallicFactor": 0.0
      }
    }
  ],
  "meshes": [
    {
      "name": "Character",
      "primitives": [
        {
          "attributes": {
            "NORMAL": 1,
            "POSITION": 0,
            "TEXCOORD_0": 2
          },
          "indices": 3,
          "material": 0,
          "mode": 4
        }
      ]
    }
  ],
  "nodes": [
    {
      "children": [
        1
      ],
      "matrix": [
        1.0,
        0.0,
        0.0,
        0.0,
        0.0,
        2.220446049250313e-16,
        -1.0,
        0.0,
        0.0,
        1.0,
        2.220446049250313e-16,
        0.0,
        0.0,
        0.0,
        0.0,
        1.0
      ],
      "name": "Sketchfab_model"
    },
    {
      "children": [
        2
      ],
      "name": "Root"
    },
    {
      "children": [
        3,
        42
      ],
      "matrix": [
        0.28191000000000005,
        0.0,
        0.0,
        0.0,
        0.0,
        0.28191000000000005,
        0.0,
        0.0,
        0.0,
        0.0,
        0.28191000000000005,
        0.0,
        0.0,
        0.0,
        0.0,
        1.0
      ],
      "name": "Armature"
    },
    {
      "children": [
        4,
        5
      ],
      "name": "Armature_rootJoint"
    },
    {
      "name": "Hat",
      "rotation": [
        0.7071068286895752,
        0.0,
        0.0,
        0.7071068286895752
      ],
      "scale": [
        1.0,
        1.0,
        1.0
      ],
      "translation": [
        0.052480001002550125,
        -0.05829000100493431,
        13.343740463256836
      ]
    },
    {
      "children": [
        6,
        28,
        29,
        35,
        36
      ],
      "name": "Root",
      "rotation": [
        0.0,
        0.0,
        1.0,
        0.0
      ],
      "scale": [
        1.0,
        1.0,
        1.0
      ],
      "translation": [
        0.052480001002550125,
        -0.05829000100493431,
        0.0
      ]
    },
    {
      "children": [
        7,
        24,
        26
      ],
      "name": "Torso",
      "rotation": [
        0.682975172996521,
        0.0,
        0.0,
        0.7304415702819824
      ],
      "scale": [
        1.0,
        1.0000030994415283,
        1.0000030994415283
      ],
      "translation": [
        0.0,
        0.0,
        5.611939907073975
      ]
    },
    {
      "children": [
        8,
        10,
        17
      ],
      "name": "Chest",
      "rotation": [
        0.0,
        0.9985090494155884,
        0.05458642169833183,
        0.0
      ],
      "scale": [
        1.0,
        0.9999993443489075,
        0.9999993443489075
      ],
      "translation": [
        0.0,
        2.473789930343628,
        0.0
      ]
    },
    {
      "children": [
        9
      ],
      "name": "Neck",
      "rotation": [
        0.0,
        0.9949491024017334,
        0.10038173943758011,
        0.0
      ],
      "scale": [
        1.0,
        1.0000030994415283,
        1.0000030994415283
      ],
      "translation": [
        0.0,
        2.4279000759124756,
        0.0
      ]
    },
    {
      "name": "Head",
      "rotation": [
        0.07556602358818054,
        0.0,
        0.0,
        0.9971408247947693
      ],
      "scale": [
        1.0,
        1.0000004768371582,
        1.0000004768371582
      ],
      "translation": [
        0.0,
        0.45899999141693115,
        0.0
      ]
    },
    {
      "children": [
        11
      ],
      "name": "Upper Arm.L",
      "rotation": [
        0.7130045294761658,
        0.20144155621528625,
        0.6163685321807861,
        -0.26671266555786133
      ],
      "scale": [
        0.9999980926513672,
        0.999994158744812,
        1.0000009536743164
      ],
      "translation": [
        1.3039699792861938,
        1.828719973564148,
        -0.23969000577926636
      ]
    },
    {
      "children": [
        12
      ],
      "name": "Lower Arm.L",
      "rotation": [
        -0.035938188433647156,
        0.208098366856575,
        -0.1538466364145279,
        0.965264081954956
      ],
      "scale": [
        0.9999958276748657,
        1.0000011920928955,
        1.0000041723251343
      ],
      "translation": [
        0.0,
        2.5731201171875,
        0.0
      ]
    },
    {
      "children": [
        13,
        15
      ],
      "name": "Hand.L",
      "rotation": [
        0.0801243856549263,
        0.08210432529449463,
        -0.06640346348285675,
        0.9911759495735168
      ],
      "scale": [
        1.0000008344650269,
        0.9999974370002747,
        1.000003695487976
      ],
      "translation": [
        0.0,
        2.3018100261688232,
        0.0
      ]
    },
    {
      "children": [
        14
      ],
      "name": "Fingers01.L",
      "rotation": [
        -0.18513597548007965,
        0.29298487305641174,
        -0.18453821539878845,
        0.9196903705596924
      ],
      "scale": [
        0.9999986290931702,
        0.9999976754188538,
        1.0000019073486328
      ],
      "translation": [
        0.0,
        0.8204299807548523,
        0.0
      ]
    },
    {
      "name": "Fingers02.L",
      "rotation": [
        -0.008895164355635643,
        0.4164573550224304,
        -0.1536780297756195,
        0.8960285782814026
      ],
      "scale": [
        0.9999966025352478,
        1.0000026226043701,
        1.0000015497207642
      ],
      "translation": [
        0.0,
        0.2961699962615967,
        0.0
      ]
    },
    {
      "children": [
        16
      ],
      "name": "Thumb01.L",
      "rotation": [
        0.2566958963871002,
        0.29909762740135193,
        -0.6962485313415527,
        0.5999048352241516
      ],
      "scale": [
        0.9999971985816956,
        1.0000003576278687,
        1.0000064373016357
      ],
      "translation": [
        0.22773000597953796,
        0.5384299755096436,
        -0.005900000222027302
      ]
    },
    {
      "name": "Thumb02.L",
      "rotation": [
        0.013699518516659737,
        -0.0013609087327495217,
        -0.11009757965803146,
        0.9938254356384277
      ],
      "scale": [
        0.999994695186615,
        1.0000007152557373,
        0.9999984502792358
      ],
      "translation": [
        0.0,
        0.2670400142669678,
        0.0
      ]
    },
    {
      "children": [
        18
      ],
      "name": "Upper Arm.R",
      "rotation": [
        0.7130045294761658,
        -0.20144155621528625,
        -0.6163685321807861,
        -0.26671266555786133
      ],
      "scale": [
        0.9999980926513672,
        0.999994158744812,
        1.0000009536743164
      ],
      "translation": [
        -1.3039699792861938,
        1.828719973564148,
        -0.23969000577926636
      ]
    },
    {
      "children": [
        19
      ],
      "name": "Lower Arm.R",
      "rotation": [
        -0.035938188433647156,
        -0.208098366856575,
        0.1538466364145279,
        0.965264081954956
      ],
      "scale": [
        0.9999958276748657,
        1.0000011920928955,
        1.0000041723251343
      ],
      "translation": [
        0.0,
        2.5731201171875,
        0.0
      ]
    },
    {
      "children": [
        20,
        22
      ],
      "name": "Hand.R",
      "rotation": [
        0.0801243856549263,
        -0.08210432529449463,
        0.06640346348285675,
        0.9911759495735168
      ],
      "scale": [
        1.0000008344650269,
        0.9999974370002747,
        1.000003695487976
      ],
      "translation": [
        0.0,
        2.3018100261688232,
        0.0
      ]
    },
    {
      "children": [
        21
      ],
      "name": "Fingers01.R",
      "rotation": [
        -0.18513597548007965,
        -0.29298487305641174,
        0.18453821539878845,
        0.9196903705596924
      ],
      "scale": [
        0.9999986290931702,
        0.9999976754188538,
        1.0000019073486328
      ],
      "translation": [
        0.0,
        0.8204299807548523,
        0.0
      ]
    },
    {
      "name": "Fingers02.R",
      "rotation": [
        -0.008895164355635643,
        -0.4164573550224304,
        0.1536780297756195,
        0.8960285782814026
      ],
      "scale": [
        0.9999966025352478,
        1.0000026226043701,
        1.0000015497207642
      ],
      "translation": [
        0.0,
        0.2961699962615967,
        0.0
      ]
    },
    {
      "children": [
        23
      ],
      "name": "Thumb01.R",
      "rotation": [
        0.2566958963871002,
        -0.29909762740135193,
        0.6962485313415527,
        0.5999048352241516
      ],
      "scale": [
        0.9999971985816956,
        1.0000003576278687,
        1.0000064373016357
      ],
      "translation": [
        -0.22773000597953796,
        0.5384299755096436,
        -0.005900000222027302
      ]
    },
    {
      "name": "Thumb02.R",
      "rotation": [
        0.013699518516659737,
        0.0013609087327495217,
        0.11009757965803146,
        0.9938254356384277
      ],
      "scale": [
        0.999994695186615,
        1.0000007152557373,
        0.9999984502792358
      ],
      "translation": [
        0.0,
        0.2670400142669678,
        0.0
      ]
    },
    {
      "children": [
        25
      ],
      "name": "Upper Leg.L",
      "rotation": [
        0.999015212059021,
        0.0,
        0.0,
        -0.04436926171183586
      ],
      "scale": [
        1.0,
        0.9999971985816956,
        0.9999772310256958
      ],
      "translation": [
        -0.8754400014877319,
        0.005710000172257423,
        0.028470000252127647
      ]
    },
    {
      "name": "Lower Leg.L",
      "rotation": [
        0.0,
        0.9986271262168884,
        -0.052382033318281174,
        0.0
      ],
      "scale": [
        1.0,
        0.9999977350234985,
        0.9999977350234985
      ],
      "translation": [
        0.0,
        2.125420093536377,
        0.0
      ]
    },
    {
      "children": [
        27
      ],
      "name": "Upper Leg.R",
      "rotation": [
        0.999015212059021,
        0.0,
        0.0,
        -0.04436926171183586
      ],
      "scale": [
        1.0,
        0.9999971985816956,
        0.9999772310256958
      ],
      "translation": [
        0.8754400014877319,
        0.005710000172257423,
        0.028470000252127647
      ]
    },
    {
      "name": "Lower Leg.R",
      "rotation": [
        0.0,
        0.9986271262168884,
        -0.052382033318281174,
        0.0
      ],
      "scale": [
        1.0,
        0.9999977350234985,
        0.9999977350234985
      ],
      "translation": [
        0.0,
        2.125420093536377,
        0.0
      ]
    },
    {
      "name": "Leg pole target.L",
      "rotation": [
        0.0,
        0.0,
        0.0,
        1.0
      ],
      "scale": [
        1.0,
        1.0,
        1.0
      ],
      "translation": [
        -0.8754400014877319,
        2.3787899017333984,
        3.4946300983428955
      ]
    },
    {
      "children": [
        30,
        32,
        34
      ],
      "name": "Leg Control.L",
      "rotation": [
        0.0,
        0.0,
        0.0,
        1.0
      ],
      "scale": [
        1.0,
        1.0,
        1.0
      ],
      "translation": [
        -0.8723899722099304,
        -0.6554800271987915,
        0.0006300000241026282
      ]
    },
    {
      "children": [
        31
      ],
      "name": "Foot.L",
      "rotation": [
        -0.29840922355651855,
        -0.006155763287097216,
        0.0019254024373367429,
        0.9544163346290588
      ],
      "scale": [
        1.000002384185791,
        1.0000057220458984,
        1.0000016689300537
      ],
      "translation": [
        -0.0030499999411404133,
        0.4486199915409088,
        0.7979900240898132
      ]
    },
    {
      "name": "Toes.L",
      "rotation": [
        0.2844848036766052,
        0.0027251355350017548,
        0.008507555350661278,
        0.9586390256881714
      ],
      "scale": [
        1.000003695487976,
        0.9999973773956299,
        0.9999936819076538
      ],
      "translation": [
        0.0,
        1.35385000705719,
        0.0
      ]
    },
    {
      "children": [
        33
      ],
      "name": "Foot Roll.L",
      "rotation": [
        0.004783122334629297,
        0.29837659001350403,
        0.9544158577919006,
        0.006236532237380743
      ],
      "scale": [
        1.0000048875808716,
        0.999994695186615,
        1.0000014305114746
      ],
      "translation": [
        -0.0030499999411404133,
        1.5613499879837036,
        0.02677999995648861
      ]
    },
    {
      "name": "Leg ik.L",
      "rotation": [
        -0.29837659001350403,
        0.004783122334629297,
        0.006236532237380743,
        0.9544158577919006
      ],
      "scale": [
        1.0000048875808716,
        0.999994695186615,
        1.0000014305114746
      ],
      "translation": [
        0.0,
        1.353909969329834,
        0.0
      ]
    },
    {
      "name": "Toes Control.L",
      "rotation": [
        -0.014616601169109344,
        0.0,
        0.0,
        0.9998931884765625
      ],
      "scale": [
        1.0,
        0.9999973177909851,
        0.9999973177909851
      ],
      "translation": [
        -0.015300000086426735,
        1.5613499879837036,
        0.02677999995648861
      ]
    },
    {
      "name": "Leg pole target.R",
      "rotation": [
        0.0,
        0.0,
        0.0,
        1.0
      ],
      "scale": [
        1.0,
        1.0,
        1.0
      ],
      "translation": [
        0.8754400014877319,
        2.3787899017333984,
        3.4946300983428955
      ]
    },
    {
      "children": [
        37,
        39,
        41
      ],
      "name": "Leg Control.R",
      "rotation": [
        0.0,
        0.0,
        0.0,
        1.0
      ],
      "scale": [
        1.0,
        1.0,
        1.0
      ],
      "translation": [
        0.8723899722099304,
        -0.6554800271987915,
        0.0006300000241026282
      ]
    },
    {
      "children": [
        38
      ],
      "name": "Foot.R",
      "rotation": [
        -0.2983415126800537,
        0.0034184399992227554,
        -0.010551112703979015,
        0.9543947577476501
      ],
      "scale": [
        0.9999960660934448,
        0.9999956488609314,
        1.000000238418579
      ],
      "translation": [
        0.0030499999411404133,
        0.4486199915409088,
        0.7979900240898132
      ]
    },
    {
      "name": "Toes.R",
      "rotation": [
        0.2843134105205536,
        -0.007026714738458395,
        0.020842725411057472,
        0.9584790468215942
      ],
      "scale": [
        0.999996542930603,
        0.9999940991401672,
        0.9999998211860657
      ],
      "translation": [
        0.0,
        1.3540699481964111,
        0.0
      ]
    },
    {
      "children": [
        40
      ],
      "name": "Foot Roll.R",
      "rotation": [
        -0.004783122334629297,
        0.29837659001350403,
        0.9544158577919006,
        -0.006236532237380743
      ],
      "scale": [
        1.0000048875808716,
        0.999994695186615,
        1.0000014305114746
      ],
      "translation": [
        0.0030499999411404133,
        1.5613499879837036,
        0.02677999995648861
      ]
    },
    {
      "name": "Leg ik.R",
      "rotation": [
        -0.29837659001350403,
        -0.004783122334629297,
        -0.006236532237380743,
        0.9544158577919006
      ],
      "scale": [
        1.0000048875808716,
        0.999994695186615,
        1.0000014305114746
      ],
      "translation": [
        0.0,
        1.353909969329834,
        0.0
      ]
    },
    {
      "name": "Toes Control.R",
      "rotation": [
        -0.014616601169109344,
        0.0,
        0.0,
        0.9998931884765625
      ],
      "scale": [
        1.0,
        0.9999973177909851,
        0.9999973177909851
      ],
      "translation": [
        0.015300000086426735,
        1.5613499879837036,
        0.02677999995648861
      ]
    },
    {
      "children": [
        43
      ],
      "matrix": [
        7.2918400000000005,
        0.0,
        0.0,
        0.0,
        0.0,
        7.2918400000000005,
        0.0,
        0.0,
        0.0,
        0.0,
        7.2918400000000005,
        0.0,
        0.052480000000000006,
        -0.05829000000000001,
        0.0,
        1.0
      ],
      "name": "Character"
    },
    {
      "mesh": 0,
      "name": "Character"
    }
  ],
  "samplers": [
    {
      "magFilter": 9729,
      "minFilter": 9987,
      "wrapS": 10497,
      "wrapT": 10497
    }
  ],
  "scene": 0,
  "scenes": [
    {
      "name": "Sketchfab_Scene",
      "nodes": [
        0
      ]
    }
  ],
  "skins": [
    {
      "inverseBindMatrices": 4,
      "joints": [
        3,
        4,
        5,
        6,
        7,
        8,
        9,
        10,
        11,
        12,
        13,
        14,
        15,
        16,
        17,
        18,
        19,
        20,
        21,
        22,
        23,
        24,
        25,
        26,
        27,
        28,
        29,
        30,
        31,
        32,
        33,
        34,
        35,
        36,
        37,
        38,
        39,
        40,
        41
      ],
      "skeleton": 3
    }
  ],
  "textures": [
    {
      "sampler": 0,
      "source": 0
    }
  ]
}
